<svg width="179" height="57" viewBox="0 0 179 57" fill="none" xmlns="http://www.w3.org/2000/svg">
<path fill-rule="evenodd" clip-rule="evenodd" d="M16 16V40H26.2335C29.0491 40 31.2474 39.345 32.8284 38.0349C34.4095 36.7248 35.2 34.8886 35.2 32.5262C35.2 31.6456 35.0701 30.8081 34.8102 30.0134C34.5503 29.1973 34.0738 28.4456 33.3807 27.7584C33.1277 27.5075 32.8356 27.2694 32.5046 27.0443C32.8276 26.734 33.0979 26.4029 33.3157 26.051C33.9005 25.0846 34.1929 24.0752 34.1929 23.0228C34.1929 21.5409 33.8789 20.2846 33.2508 19.2537C32.6227 18.2013 31.713 17.396 30.5218 16.8376C29.3306 16.2792 27.9012 16 26.2335 16H16ZM18 18V36H20.764V29.2349H24.1683L27.8613 36H31L26.9712 28.7517C27.9862 28.349 28.7904 27.7047 29.3838 26.8188C29.9928 25.9329 30.2973 24.8698 30.2973 23.6295C30.2973 22.4537 30.0396 21.447 29.5243 20.6094C29.0246 19.7557 28.3297 19.1114 27.4396 18.6765C26.5495 18.2255 25.5189 18 24.3477 18H18ZM24.3946 26.698H20.764V20.5369H24.3946C25.0348 20.5369 25.5892 20.6658 26.0577 20.9235C26.5261 21.1651 26.8853 21.5195 27.1351 21.9866C27.4006 22.4376 27.5333 22.9772 27.5333 23.6054C27.5333 24.2336 27.4006 24.7812 27.1351 25.2483C26.8853 25.6993 26.5261 26.0537 26.0577 26.3114C25.5892 26.5691 25.0348 26.698 24.3946 26.698Z" fill="#FFAD05"/>
<path d="M145.838 40.224V16H150.638V31.52L148.846 30.944L156.558 22.752H162.478L156.142 29.792L162.446 40.224H157.006L151.726 31.36L154.51 30.656L149.166 36.48L150.638 33.696V40.224H145.838Z" fill="#3235C5"/>
<path d="M135.811 40.608C134.062 40.608 132.483 40.2134 131.075 39.424C129.689 38.6134 128.579 37.5147 127.747 36.128C126.937 34.7414 126.531 33.184 126.531 31.456C126.531 29.728 126.937 28.1814 127.747 26.816C128.558 25.4294 129.667 24.3414 131.075 23.552C132.483 22.7627 134.062 22.368 135.811 22.368C137.113 22.368 138.318 22.592 139.427 23.04C140.537 23.488 141.486 24.1174 142.275 24.928C143.065 25.7174 143.63 26.656 143.971 27.744L139.811 29.536C139.513 28.6614 139.001 27.968 138.275 27.456C137.571 26.944 136.75 26.688 135.811 26.688C134.979 26.688 134.233 26.8907 133.571 27.296C132.931 27.7014 132.419 28.2667 132.035 28.992C131.673 29.7174 131.491 30.5494 131.491 31.488C131.491 32.4267 131.673 33.2587 132.035 33.984C132.419 34.7094 132.931 35.2747 133.571 35.68C134.233 36.0854 134.979 36.288 135.811 36.288C136.771 36.288 137.603 36.032 138.307 35.52C139.011 35.008 139.513 34.3147 139.811 33.44L143.971 35.264C143.651 36.288 143.097 37.2054 142.307 38.016C141.518 38.8267 140.569 39.4667 139.459 39.936C138.35 40.384 137.134 40.608 135.811 40.608Z" fill="#3235C5"/>
<path d="M116.024 40.608C114.296 40.608 112.717 40.2134 111.288 39.424C109.88 38.6347 108.749 37.5574 107.896 36.192C107.064 34.8054 106.648 33.2374 106.648 31.488C106.648 29.7174 107.064 28.1494 107.896 26.784C108.749 25.4187 109.88 24.3414 111.288 23.552C112.717 22.7627 114.296 22.368 116.024 22.368C117.752 22.368 119.32 22.7627 120.728 23.552C122.136 24.3414 123.256 25.4187 124.088 26.784C124.941 28.1494 125.368 29.7174 125.368 31.488C125.368 33.2374 124.941 34.8054 124.088 36.192C123.256 37.5574 122.136 38.6347 120.728 39.424C119.32 40.2134 117.752 40.608 116.024 40.608ZM116.024 36.288C116.898 36.288 117.656 36.0854 118.296 35.68C118.957 35.2747 119.469 34.7094 119.832 33.984C120.216 33.2587 120.408 32.4267 120.408 31.488C120.408 30.5494 120.216 29.728 119.832 29.024C119.469 28.2987 118.957 27.7334 118.296 27.328C117.656 26.9014 116.898 26.688 116.024 26.688C115.149 26.688 114.381 26.9014 113.72 27.328C113.058 27.7334 112.536 28.2987 112.152 29.024C111.789 29.728 111.608 30.5494 111.608 31.488C111.608 32.4267 111.789 33.2587 112.152 33.984C112.536 34.7094 113.058 35.2747 113.72 35.68C114.381 36.0854 115.149 36.288 116.024 36.288Z" fill="#3235C5"/>
<path d="M99.9992 40.224V16H104.799V40.224H99.9992Z" fill="#3235C5"/>
<path d="M79.2175 40.224V16.384H89.2975C90.9402 16.384 92.3482 16.6614 93.5215 17.216C94.6948 17.7707 95.5908 18.5707 96.2095 19.616C96.8282 20.64 97.1375 21.888 97.1375 23.36C97.1375 24.4054 96.8495 25.408 96.2735 26.368C95.6975 27.3067 94.7482 28.096 93.4255 28.736V26.304C94.6842 26.7947 95.6548 27.3814 96.3375 28.064C97.0202 28.7467 97.4895 29.4934 97.7455 30.304C98.0015 31.0934 98.1295 31.9254 98.1295 32.8C98.1295 35.1467 97.3508 36.9707 95.7935 38.272C94.2362 39.5734 92.0708 40.224 89.2975 40.224H79.2175ZM84.1775 35.904H89.8735C90.8762 35.904 91.6762 35.616 92.2735 35.04C92.8708 34.464 93.1695 33.7174 93.1695 32.8C93.1695 31.8614 92.8708 31.104 92.2735 30.528C91.6762 29.952 90.8762 29.664 89.8735 29.664H84.1775V35.904ZM84.1775 25.344H89.6495C90.4175 25.344 91.0255 25.1307 91.4735 24.704C91.9428 24.256 92.1775 23.6694 92.1775 22.944C92.1775 22.2187 91.9428 21.6427 91.4735 21.216C91.0255 20.768 90.4175 20.544 89.6495 20.544H84.1775V25.344Z" fill="#3235C5"/>
<path d="M68.679 40.608C66.823 40.608 65.2123 40.2027 63.847 39.392C62.4817 38.56 61.4257 37.4507 60.679 36.064C59.9323 34.6774 59.559 33.1414 59.559 31.456C59.559 29.7067 59.943 28.1494 60.711 26.784C61.5003 25.4187 62.5563 24.3414 63.879 23.552C65.2017 22.7627 66.695 22.368 68.359 22.368C69.7457 22.368 70.9723 22.592 72.039 23.04C73.1057 23.4667 74.0017 24.0747 74.727 24.864C75.4737 25.6534 76.039 26.5707 76.423 27.616C76.807 28.64 76.999 29.76 76.999 30.976C76.999 31.3174 76.9777 31.6587 76.935 32C76.9137 32.32 76.8603 32.5974 76.775 32.832H63.687V29.312H74.055L71.783 30.976C71.9963 30.0587 71.9857 29.248 71.751 28.544C71.5163 27.8187 71.1003 27.2534 70.503 26.848C69.927 26.4214 69.2123 26.208 68.359 26.208C67.527 26.208 66.8123 26.4107 66.215 26.816C65.6177 27.2214 65.1697 27.8187 64.871 28.608C64.5723 29.3974 64.455 30.3574 64.519 31.488C64.4337 32.4694 64.551 33.3334 64.871 34.08C65.191 34.8267 65.6817 35.4134 66.343 35.84C67.0043 36.2454 67.8043 36.448 68.743 36.448C69.5963 36.448 70.3217 36.2774 70.919 35.936C71.5377 35.5947 72.0177 35.1254 72.359 34.528L76.199 36.352C75.8577 37.2054 75.3137 37.952 74.567 38.592C73.8417 39.232 72.9777 39.7334 71.975 40.096C70.9723 40.4374 69.8737 40.608 68.679 40.608Z" fill="#3235C5"/>
<path d="M41.2 40.224V16.384H50.32C51.9627 16.384 53.4133 16.672 54.672 17.248C55.952 17.824 56.9547 18.6774 57.68 19.808C58.4053 20.9387 58.768 22.336 58.768 24C58.768 25.6214 58.3947 27.008 57.648 28.16C56.9013 29.2907 55.8987 30.144 54.64 30.72L60.08 40.224H54.512L48.624 29.696L51.824 31.584H46.16V40.224H41.2ZM46.16 27.264H50.352C51.056 27.264 51.664 27.1254 52.176 26.848C52.688 26.5707 53.0827 26.1867 53.36 25.696C53.6587 25.2054 53.808 24.64 53.808 24C53.808 23.3387 53.6587 22.7627 53.36 22.272C53.0827 21.7814 52.688 21.3974 52.176 21.12C51.664 20.8427 51.056 20.704 50.352 20.704H46.16V27.264Z" fill="#3235C5"/>
</svg>
