<svg width="152" height="40" viewBox="0 0 152 40" fill="none" xmlns="http://www.w3.org/2000/svg">
<path d="M29.5564 33V9.16H38.6764C40.3191 9.16 41.7697 9.448 43.0284 10.024C44.3084 10.6 45.3111 11.4533 46.0364 12.584C46.7617 13.7147 47.1244 15.112 47.1244 16.776C47.1244 18.3973 46.7511 19.784 46.0044 20.936C45.2577 22.0667 44.2551 22.92 42.9964 23.496L48.4364 33H42.8684L36.9804 22.472L40.1804 24.36H34.5164V33H29.5564ZM34.5164 20.04H38.7084C39.4124 20.04 40.0204 19.9013 40.5324 19.624C41.0444 19.3467 41.4391 18.9627 41.7164 18.472C42.0151 17.9813 42.1644 17.416 42.1644 16.776C42.1644 16.1147 42.0151 15.5387 41.7164 15.048C41.4391 14.5573 41.0444 14.1733 40.5324 13.896C40.0204 13.6187 39.4124 13.48 38.7084 13.48H34.5164V20.04ZM57.0354 33.384C55.1794 33.384 53.5687 32.9787 52.2034 32.168C50.8381 31.336 49.7821 30.2267 49.0354 28.84C48.2887 27.4533 47.9154 25.9173 47.9154 24.232C47.9154 22.4827 48.2994 20.9253 49.0674 19.56C49.8567 18.1947 50.9127 17.1173 52.2354 16.328C53.5581 15.5387 55.0514 15.144 56.7154 15.144C58.1021 15.144 59.3287 15.368 60.3954 15.816C61.4621 16.2427 62.3581 16.8507 63.0834 17.64C63.8301 18.4293 64.3954 19.3467 64.7794 20.392C65.1634 21.416 65.3554 22.536 65.3554 23.752C65.3554 24.0933 65.3341 24.4347 65.2914 24.776C65.2701 25.096 65.2167 25.3733 65.1314 25.608H52.0434V22.088H62.4114L60.1394 23.752C60.3527 22.8347 60.3421 22.024 60.1074 21.32C59.8727 20.5947 59.4567 20.0293 58.8594 19.624C58.2834 19.1973 57.5687 18.984 56.7154 18.984C55.8834 18.984 55.1687 19.1867 54.5714 19.592C53.9741 19.9973 53.5261 20.5947 53.2274 21.384C52.9287 22.1733 52.8114 23.1333 52.8754 24.264C52.7901 25.2453 52.9074 26.1093 53.2274 26.856C53.5474 27.6027 54.0381 28.1893 54.6994 28.616C55.3607 29.0213 56.1607 29.224 57.0994 29.224C57.9527 29.224 58.6781 29.0533 59.2754 28.712C59.8941 28.3707 60.3741 27.9013 60.7154 27.304L64.5554 29.128C64.2141 29.9813 63.6701 30.728 62.9234 31.368C62.1981 32.008 61.3341 32.5093 60.3314 32.872C59.3287 33.2133 58.2301 33.384 57.0354 33.384ZM67.5739 33V9.16H77.6539C79.2966 9.16 80.7046 9.43733 81.8779 9.992C83.0512 10.5467 83.9472 11.3467 84.5659 12.392C85.1846 13.416 85.4939 14.664 85.4939 16.136C85.4939 17.1813 85.2059 18.184 84.6299 19.144C84.0539 20.0827 83.1046 20.872 81.7819 21.512V19.08C83.0406 19.5707 84.0112 20.1573 84.6939 20.84C85.3766 21.5227 85.8459 22.2693 86.1019 23.08C86.3579 23.8693 86.4859 24.7013 86.4859 25.576C86.4859 27.9227 85.7072 29.7467 84.1499 31.048C82.5926 32.3493 80.4272 33 77.6539 33H67.5739ZM72.5339 28.68H78.2299C79.2326 28.68 80.0326 28.392 80.6299 27.816C81.2272 27.24 81.5259 26.4933 81.5259 25.576C81.5259 24.6373 81.2272 23.88 80.6299 23.304C80.0326 22.728 79.2326 22.44 78.2299 22.44H72.5339V28.68ZM72.5339 18.12H78.0059C78.7739 18.12 79.3819 17.9067 79.8299 17.48C80.2992 17.032 80.5339 16.4453 80.5339 15.72C80.5339 14.9947 80.2992 14.4187 79.8299 13.992C79.3819 13.544 78.7739 13.32 78.0059 13.32H72.5339V18.12ZM88.3556 33V8.776H93.1556V33H88.3556ZM104.38 33.384C102.652 33.384 101.073 32.9893 99.6442 32.2C98.2362 31.4107 97.1055 30.3333 96.2522 28.968C95.4202 27.5813 95.0042 26.0133 95.0042 24.264C95.0042 22.4933 95.4202 20.9253 96.2522 19.56C97.1055 18.1947 98.2362 17.1173 99.6442 16.328C101.073 15.5387 102.652 15.144 104.38 15.144C106.108 15.144 107.676 15.5387 109.084 16.328C110.492 17.1173 111.612 18.1947 112.444 19.56C113.297 20.9253 113.724 22.4933 113.724 24.264C113.724 26.0133 113.297 27.5813 112.444 28.968C111.612 30.3333 110.492 31.4107 109.084 32.2C107.676 32.9893 106.108 33.384 104.38 33.384ZM104.38 29.064C105.255 29.064 106.012 28.8613 106.652 28.456C107.313 28.0507 107.825 27.4853 108.188 26.76C108.572 26.0347 108.764 25.2027 108.764 24.264C108.764 23.3253 108.572 22.504 108.188 21.8C107.825 21.0747 107.313 20.5093 106.652 20.104C106.012 19.6773 105.255 19.464 104.38 19.464C103.505 19.464 102.737 19.6773 102.076 20.104C101.415 20.5093 100.892 21.0747 100.508 21.8C100.145 22.504 99.9642 23.3253 99.9642 24.264C99.9642 25.2027 100.145 26.0347 100.508 26.76C100.892 27.4853 101.415 28.0507 102.076 28.456C102.737 28.8613 103.505 29.064 104.38 29.064ZM124.168 33.384C122.419 33.384 120.84 32.9893 119.432 32.2C118.045 31.3893 116.936 30.2907 116.104 28.904C115.293 27.5173 114.888 25.96 114.888 24.232C114.888 22.504 115.293 20.9573 116.104 19.592C116.915 18.2053 118.024 17.1173 119.432 16.328C120.84 15.5387 122.419 15.144 124.168 15.144C125.469 15.144 126.675 15.368 127.784 15.816C128.893 16.264 129.843 16.8933 130.632 17.704C131.421 18.4933 131.987 19.432 132.328 20.52L128.168 22.312C127.869 21.4373 127.357 20.744 126.632 20.232C125.928 19.72 125.107 19.464 124.168 19.464C123.336 19.464 122.589 19.6667 121.928 20.072C121.288 20.4773 120.776 21.0427 120.392 21.768C120.029 22.4933 119.848 23.3253 119.848 24.264C119.848 25.2027 120.029 26.0347 120.392 26.76C120.776 27.4853 121.288 28.0507 121.928 28.456C122.589 28.8613 123.336 29.064 124.168 29.064C125.128 29.064 125.96 28.808 126.664 28.296C127.368 27.784 127.869 27.0907 128.168 26.216L132.328 28.04C132.008 29.064 131.453 29.9813 130.664 30.792C129.875 31.6027 128.925 32.2427 127.816 32.712C126.707 33.16 125.491 33.384 124.168 33.384ZM134.194 33V8.776H138.994V24.296L137.202 23.72L144.914 15.528H150.834L144.498 22.568L150.802 33H145.362L140.082 24.136L142.866 23.432L137.522 29.256L138.994 26.472V33H134.194Z" fill="#2E31A5"/>
<path fill-rule="evenodd" clip-rule="evenodd" d="M0 20.4847C0.0588548 20.5129 0.118041 20.5411 0.177545 20.5693C3.50357 22.1442 7.64162 23.5373 11.3438 23.2288C15.1842 22.9087 19.2143 21.4605 22.3364 20.0507C22.5998 19.9317 22.8561 19.8134 23.1045 19.6964C23.021 19.5857 22.9289 19.4795 22.828 19.3787L13.8865 10.4372C12.715 9.26558 10.8155 9.26558 9.6439 10.4372L0.702396 19.3787C0.378989 19.7021 0.144857 20.0809 0 20.4847ZM23.5429 22.4799C23.5127 22.4936 23.4823 22.5073 23.4519 22.5211C20.2185 23.9812 15.8602 25.5724 11.5689 25.93C7.9242 26.2337 4.11583 25.173 0.958574 23.8775L9.6439 32.5628C10.8155 33.7344 12.715 33.7344 13.8865 32.5628L22.828 23.6213C23.1609 23.2885 23.3992 22.8969 23.5429 22.4799Z" fill="#FFAD05"/>
</svg>
