<svg width="143" height="24" viewBox="0 0 143 24" fill="none" xmlns="http://www.w3.org/2000/svg">
<path fill-rule="evenodd" clip-rule="evenodd" d="M0 0V23.407H9.98065C12.7266 23.407 14.8706 22.7682 16.4126 21.4905C17.9546 20.2128 18.7256 18.4219 18.7256 16.1179C18.7256 15.2591 18.5989 14.4422 18.3454 13.6672C18.0919 12.8712 17.6272 12.1381 16.9513 11.4679C16.7045 11.2232 16.4197 10.991 16.0968 10.7714C16.4118 10.4688 16.6755 10.1459 16.8879 9.80267C17.4582 8.86011 17.7434 7.87565 17.7434 6.84931C17.7434 5.40404 17.4371 4.1787 16.8245 3.1733C16.212 2.14695 15.3248 1.36148 14.163 0.81689C13.0012 0.272297 11.6071 0 9.98065 0H0ZM1.95058 1.95059V19.5059H4.64625V12.9079H7.96646L11.5682 19.5059H14.6294L10.7001 12.4366C11.69 12.0439 12.4744 11.4155 13.0531 10.5515C13.6471 9.68747 13.944 8.65065 13.944 7.44103C13.944 6.29424 13.6927 5.3124 13.1902 4.49551C12.7028 3.66291 12.0251 3.03454 11.157 2.61038C10.2889 2.17052 9.28372 1.95059 8.14149 1.95059H1.95058ZM8.18718 10.4337H4.64625V4.42482H8.18718C8.8116 4.42482 9.35225 4.55049 9.80915 4.80185C10.266 5.03749 10.6163 5.38309 10.86 5.83867C11.1189 6.27853 11.2484 6.80479 11.2484 7.41746C11.2484 8.03013 11.1189 8.56425 10.86 9.01982C10.6163 9.45969 10.266 9.80529 9.80915 10.0566C9.35225 10.308 8.8116 10.4337 8.18718 10.4337Z" fill="#FFAD05"/>
<path d="M126.63 23.6255V0H131.311V15.1365L129.564 14.5748L137.085 6.58518H142.859L136.679 13.4512L142.827 23.6255H137.522L132.372 14.9805L135.088 14.2939L129.876 19.974L131.311 17.2588V23.6255H126.63Z" fill="#3235C5"/>
<path d="M116.851 24C115.145 24 113.605 23.6151 112.232 22.8453C110.88 22.0546 109.798 20.9831 108.986 19.6307C108.196 18.2783 107.8 16.7594 107.8 15.0741C107.8 13.3888 108.196 11.8804 108.986 10.5488C109.777 9.19636 110.859 8.13524 112.232 7.36541C113.605 6.59558 115.145 6.21066 116.851 6.21066C118.12 6.21066 119.296 6.42913 120.378 6.86606C121.46 7.30299 122.386 7.91677 123.155 8.70741C123.925 9.47724 124.477 10.3927 124.809 11.4538L120.752 13.2016C120.461 12.3485 119.962 11.6723 119.254 11.173C118.568 10.6736 117.767 10.4239 116.851 10.4239C116.04 10.4239 115.311 10.6216 114.666 11.0169C114.042 11.4122 113.543 11.9636 113.168 12.671C112.815 13.3784 112.638 14.1899 112.638 15.1053C112.638 16.0208 112.815 16.8323 113.168 17.5397C113.543 18.2471 114.042 18.7984 114.666 19.1938C115.311 19.5891 116.04 19.7867 116.851 19.7867C117.787 19.7867 118.599 19.5371 119.285 19.0377C119.972 18.5384 120.461 17.8622 120.752 17.0091L124.809 18.788C124.497 19.7867 123.956 20.6814 123.187 21.472C122.417 22.2627 121.491 22.8869 120.409 23.3446C119.327 23.7815 118.141 24 116.851 24Z" fill="#3235C5"/>
<path d="M97.5523 24C95.867 24 94.3273 23.6151 92.9333 22.8453C91.5601 22.0754 90.4574 21.0247 89.6251 19.6931C88.8137 18.3407 88.408 16.8114 88.408 15.1053C88.408 13.3784 88.8137 11.8492 89.6251 10.5176C90.4574 9.18596 91.5601 8.13524 92.9333 7.36541C94.3273 6.59558 95.867 6.21066 97.5523 6.21066C99.2376 6.21066 100.767 6.59558 102.14 7.36541C103.513 8.13524 104.606 9.18596 105.417 10.5176C106.249 11.8492 106.665 13.3784 106.665 15.1053C106.665 16.8114 106.249 18.3407 105.417 19.6931C104.606 21.0247 103.513 22.0754 102.14 22.8453C100.767 23.6151 99.2376 24 97.5523 24ZM97.5523 19.7867C98.4053 19.7867 99.144 19.5891 99.7682 19.1938C100.413 18.7984 100.912 18.2471 101.266 17.5397C101.641 16.8323 101.828 16.0208 101.828 15.1053C101.828 14.1899 101.641 13.3888 101.266 12.7022C100.912 11.9948 100.413 11.4434 99.7682 11.0481C99.144 10.632 98.4053 10.4239 97.5523 10.4239C96.6992 10.4239 95.9502 10.632 95.3052 11.0481C94.6602 11.4434 94.1505 11.9948 93.776 12.7022C93.4223 13.3888 93.2454 14.1899 93.2454 15.1053C93.2454 16.0208 93.4223 16.8323 93.776 17.5397C94.1505 18.2471 94.6602 18.7984 95.3052 19.1938C95.9502 19.5891 96.6992 19.7867 97.5523 19.7867Z" fill="#3235C5"/>
<path d="M81.9237 23.6255V0H86.6051V23.6255H81.9237Z" fill="#3235C5"/>
<path d="M61.6555 23.6255V0.374512H71.4864C73.0885 0.374512 74.4617 0.644993 75.606 1.18596C76.7504 1.72692 77.6242 2.50715 78.2276 3.52666C78.831 4.52536 79.1327 5.74252 79.1327 7.17816C79.1327 8.19766 78.8518 9.17556 78.29 10.1118C77.7283 11.0273 76.8024 11.7971 75.5124 12.4213V10.0494C76.74 10.528 77.6866 11.1001 78.3524 11.7659C79.0182 12.4317 79.476 13.16 79.7257 13.9506C79.9753 14.7204 80.1002 15.5319 80.1002 16.3849C80.1002 18.6736 79.3407 20.4525 77.8219 21.7217C76.303 22.9909 74.1912 23.6255 71.4864 23.6255H61.6555ZM66.4929 19.4122H72.0482C73.0261 19.4122 73.8063 19.1313 74.3889 18.5696C74.9714 18.0078 75.2627 17.2796 75.2627 16.3849C75.2627 15.4694 74.9714 14.7308 74.3889 14.1691C73.8063 13.6073 73.0261 13.3264 72.0482 13.3264H66.4929V19.4122ZM66.4929 9.11314H71.8297C72.5787 9.11314 73.1717 8.90507 73.6086 8.48895C74.0664 8.05202 74.2952 7.47985 74.2952 6.77243C74.2952 6.06502 74.0664 5.50325 73.6086 5.08713C73.1717 4.6502 72.5787 4.43173 71.8297 4.43173H66.4929V9.11314Z" fill="#3235C5"/>
<path d="M51.3774 24C49.5672 24 47.9963 23.6047 46.6647 22.814C45.3331 22.0026 44.3032 20.9207 43.575 19.5683C42.8468 18.2159 42.4827 16.7178 42.4827 15.0741C42.4827 13.368 42.8572 11.8492 43.6062 10.5176C44.3761 9.18596 45.406 8.13524 46.696 7.36541C47.9859 6.59558 49.4424 6.21066 51.0653 6.21066C52.4177 6.21066 53.614 6.42913 54.6543 6.86606C55.6946 7.28218 56.5685 7.87516 57.2759 8.64499C58.0041 9.41482 58.5555 10.3095 58.93 11.329C59.3045 12.3277 59.4918 13.42 59.4918 14.606C59.4918 14.9389 59.471 15.2718 59.4294 15.6047C59.4086 15.9168 59.3565 16.1873 59.2733 16.4161H46.5087V12.9831H56.6205L54.4047 14.606C54.6127 13.7113 54.6023 12.9207 54.3734 12.2341C54.1446 11.5267 53.7389 10.9753 53.1563 10.58C52.5945 10.1639 51.8975 9.95579 51.0653 9.95579C50.2538 9.95579 49.5568 10.1534 48.9742 10.5488C48.3917 10.9441 47.9547 11.5267 47.6634 12.2965C47.3722 13.0663 47.2577 14.0026 47.3201 15.1053C47.2369 16.0624 47.3514 16.9051 47.6634 17.6333C47.9755 18.3615 48.4541 18.9337 49.0991 19.3498C49.7441 19.7451 50.5243 19.9428 51.4398 19.9428C52.272 19.9428 52.9794 19.7763 53.562 19.4434C54.1654 19.1105 54.6335 18.6528 54.9664 18.0702L58.7115 19.8492C58.3786 20.6814 57.8481 21.4096 57.1199 22.0338C56.4125 22.658 55.5698 23.1469 54.5919 23.5007C53.614 23.8336 52.5425 24 51.3774 24Z" fill="#3235C5"/>
<path d="M24.5773 23.6255V0.374512H33.472C35.0741 0.374512 36.4889 0.655396 37.7165 1.21716C38.9648 1.77893 39.9427 2.61118 40.6501 3.71392C41.3575 4.81665 41.7113 6.17946 41.7113 7.80234C41.7113 9.38362 41.3471 10.736 40.6189 11.8596C39.8907 12.9623 38.9128 13.7945 37.6852 14.3563L42.9908 23.6255H37.5604L31.8179 13.3576L34.9388 15.199H29.4148V23.6255H24.5773ZM29.4148 10.9857H33.5032C34.1898 10.9857 34.7828 10.8505 35.2821 10.58C35.7815 10.3095 36.1664 9.93498 36.4369 9.45644C36.7282 8.9779 36.8738 8.42653 36.8738 7.80234C36.8738 7.15735 36.7282 6.59558 36.4369 6.11704C36.1664 5.63849 35.7815 5.26398 35.2821 4.9935C34.7828 4.72302 34.1898 4.58778 33.5032 4.58778H29.4148V10.9857Z" fill="#3235C5"/>
</svg>
