<?xml version="1.0" encoding="UTF-8" standalone="yes"?>
<svg xmlns="http://www.w3.org/2000/svg" xmlns:xlink="http://www.w3.org/1999/xlink" width="896px" height="896px" viewBox="64 64 896 896" version="1.1" fill="currentColor">
  <g id="surface1">
    <path d="M 149.332031 672 L 746.667969 672 C 767.199219 672 784 655.199219 784 634.667969 C 784 614.132812 767.199219 597.332031 746.667969 597.332031 L 149.332031 597.332031 C 128.800781 597.332031 112 614.132812 112 634.667969 C 112 655.199219 128.800781 672 149.332031 672 Z M 149.332031 485.332031 L 746.667969 485.332031 C 767.199219 485.332031 784 468.535156 784 448 C 784 427.464844 767.199219 410.667969 746.667969 410.667969 L 149.332031 410.667969 C 128.800781 410.667969 112 427.464844 112 448 C 112 468.535156 128.800781 485.332031 149.332031 485.332031 Z M 112 261.332031 C 112 281.867188 128.800781 298.667969 149.332031 298.667969 L 746.667969 298.667969 C 767.199219 298.667969 784 281.867188 784 261.332031 C 784 240.800781 767.199219 224 746.667969 224 L 149.332031 224 C 128.800781 224 112 240.800781 112 261.332031 Z M 112 261.332031 "/>
  </g>
</svg>