<?xml version="1.0" encoding="UTF-8" standalone="yes"?>
<svg xmlns="http://www.w3.org/2000/svg" xmlns:xlink="http://www.w3.org/1999/xlink" width="896px" height="896px" viewBox="64 64 896 896" version="1.1" fill="currentColor">
  <g id="surface1">
    <path d="M 709.332031 709.332031 L 186.667969 709.332031 L 186.667969 186.667969 L 448 186.667969 L 448 112 L 186.667969 112 C 166.863281 112 147.871094 119.867188 133.871094 133.871094 C 119.867188 147.871094 112 166.863281 112 186.667969 L 112 709.332031 C 112 729.136719 119.867188 748.128906 133.871094 762.128906 C 147.871094 776.132812 166.863281 784 186.667969 784 L 709.332031 784 C 750.398438 784 784 750.398438 784 709.332031 L 784 448 L 709.332031 448 Z M 522.667969 112 L 522.667969 186.667969 L 656.691406 186.667969 L 289.707031 553.652344 L 342.347656 606.292969 L 709.332031 239.308594 L 709.332031 373.332031 L 784 373.332031 L 784 112 Z M 522.667969 112 "/>
  </g>
</svg>